<svg xmlns="http://www.w3.org/2000/svg" width="18.5" height="18.5" viewBox="0 0 18.5 18.5">
  <path id="team-line" d="M11,10.1a4.5,4.5,0,0,1,4.5,4.5V20H13.7V14.6a2.7,2.7,0,0,0-2.541-2.7L11,11.9a2.7,2.7,0,0,0-2.7,2.541l0,.159V20H6.5V14.6A4.5,4.5,0,0,1,11,10.1ZM5.15,12.8a3.16,3.16,0,0,1,.729.085A5.353,5.353,0,0,0,5.608,14.3l-.008.3v.077a1.344,1.344,0,0,0-.321-.071L5.15,14.6a1.35,1.35,0,0,0-1.344,1.22l-.006.13V20H2V15.95A3.15,3.15,0,0,1,5.15,12.8Zm11.7,0A3.15,3.15,0,0,1,20,15.95V20H18.2V15.95a1.35,1.35,0,0,0-1.22-1.344l-.13-.006a1.348,1.348,0,0,0-.45.077V14.6a5.4,5.4,0,0,0-.278-1.714A3.071,3.071,0,0,1,16.85,12.8ZM5.15,7.4A2.25,2.25,0,1,1,2.9,9.65,2.25,2.25,0,0,1,5.15,7.4Zm11.7,0A2.25,2.25,0,1,1,14.6,9.65,2.25,2.25,0,0,1,16.85,7.4ZM5.15,9.2a.45.45,0,1,0,.45.45A.45.45,0,0,0,5.15,9.2Zm11.7,0a.45.45,0,1,0,.45.45A.45.45,0,0,0,16.85,9.2ZM11,2A3.6,3.6,0,1,1,7.4,5.6,3.6,3.6,0,0,1,11,2Zm0,1.8a1.8,1.8,0,1,0,1.8,1.8A1.8,1.8,0,0,0,11,3.8Z" transform="translate(-1.75 -1.75)" stroke="#fff" stroke-width="0.5"/>
</svg>
