<?xml version="1.0" encoding="UTF-8"?>
<svg xmlns="http://www.w3.org/2000/svg" data-name="Lager 1" viewBox="0 0 48 48"><path d="M37.27 43.5H10.73a7.5 7.5 0 0 1-6.54-11.16L17.45 8.63a7.51 7.51 0 0 1 13.1 0l13.26 23.71a7.5 7.5 0 0 1-6.54 11.16zM24 7.79a4.46 4.46 0 0 0-3.93 2.3L6.81 33.8a4.49 4.49 0 0 0 3.92 6.7h26.54a4.49 4.49 0 0 0 3.92-6.7L27.93 10.09A4.46 4.46 0 0 0 24 7.79z" style="fill: #000000;"/><path d="M24 28.5a1.5 1.5 0 0 1-1.5-1.5v-9a1.5 1.5 0 0 1 3 0v9a1.5 1.5 0 0 1-1.5 1.5z" style="fill: #000000;"/><circle cx="24" cy="33.5" r="2" style="fill: #000000;"/></svg>
