<?xml version="1.0" encoding="UTF-8"?>
<svg xmlns="http://www.w3.org/2000/svg" data-name="Lager 1" viewBox="0 0 48 48"><path d="M36 43.5H12A7.5 7.5 0 0 1 4.5 36V12A7.5 7.5 0 0 1 12 4.5h24a7.5 7.5 0 0 1 7.5 7.5v24a7.5 7.5 0 0 1-7.5 7.5zm-24-36A4.51 4.51 0 0 0 7.5 12v24a4.51 4.51 0 0 0 4.5 4.5h24a4.51 4.51 0 0 0 4.5-4.5V12A4.51 4.51 0 0 0 36 7.5z" style="fill: #000000;"/><path d="M6 16.5h36v3H6z" style="fill: #000000;"/><circle cx="12.5" cy="12" r="2" style="fill: #000000;"/><circle cx="19.5" cy="12" r="2" style="fill: #000000;"/></svg>
