<?xml version="1.0" encoding="UTF-8"?>
<svg xmlns="http://www.w3.org/2000/svg" data-name="Lager 1" viewBox="0 0 48 48"><path d="M42 43.5H6a1.5 1.5 0 0 1 0-3h36a1.5 1.5 0 0 1 0 3z" style="fill: #000000;"/><path d="M39.5 43.5h-31V12A7.5 7.5 0 0 1 16 4.5h16a7.5 7.5 0 0 1 7.5 7.5zm-28-3h25V12A4.51 4.51 0 0 0 32 7.5H16a4.51 4.51 0 0 0-4.5 4.5z" style="fill: #000000;"/><path d="M30 17.5h-2a1.5 1.5 0 0 1 0-3h2a1.5 1.5 0 0 1 0 3zM20 17.5h-2a1.5 1.5 0 0 1 0-3h2a1.5 1.5 0 0 1 0 3zM30 25.5h-2a1.5 1.5 0 0 1 0-3h2a1.5 1.5 0 0 1 0 3zM20 25.5h-2a1.5 1.5 0 0 1 0-3h2a1.5 1.5 0 0 1 0 3zM30 33.5h-2a1.5 1.5 0 0 1 0-3h2a1.5 1.5 0 0 1 0 3zM20 33.5h-2a1.5 1.5 0 0 1 0-3h2a1.5 1.5 0 0 1 0 3z" style="fill: #000000;"/></svg>
