<?xml version="1.0" encoding="UTF-8"?><svg id="Lager_1" xmlns="http://www.w3.org/2000/svg" viewBox="0 0 48 48"><path d="m35.6362,4.5H12.3638c-4.3359,0-7.8638,3.5278-7.8638,7.8638v23.2725c0,4.3359,3.5278,7.8638,7.8638,7.8638h23.2725c4.3359,0,7.8638-3.5278,7.8638-7.8638V12.3638c0-4.3359-3.5278-7.8638-7.8638-7.8638Zm4.8638,31.1362c0,2.6821-2.1816,4.8638-4.8638,4.8638H12.3638c-2.6821,0-4.8638-2.1816-4.8638-4.8638V12.3638c0-2.6821,2.1816-4.8638,4.8638-4.8638h23.2725c2.6821,0,4.8638,2.1816,4.8638,4.8638v23.2725Z"/><path d="m27.1821,28.8184l-3.1821,3.1818-3.1821-3.1818c-.5859-.5859-1.5361-.5859-2.1211,0-.5859.5859-.5859,1.5356,0,2.1211l4.2427,4.2422c.293.293.6768.4395,1.0605.4395s.7681-.1465,1.0605-.4395l4.2427-4.2422c.5859-.5854.5859-1.5352,0-2.1211s-1.5352-.5859-2.1211,0Z"/><path d="m25.0605,12.8184c-.293-.293-.6769-.4395-1.0607-.4394-.384,0-.7678.1464-1.0604.4394l-4.2427,4.2422c-.5859.5854-.5859,1.5352,0,2.1211.293.293.6768.4395,1.0605.4395s.7676-.1465,1.0605-.4395l3.1821-3.1818,3.1821,3.1818c.293.293.6768.4395,1.0605.4395s.7681-.1465,1.0605-.4395c.5859-.5859.5859-1.5356,0-2.1211l-4.2427-4.2422Z"/></svg>