<svg id="Lager_1" data-name="Lager 1" xmlns="http://www.w3.org/2000/svg" viewBox="0 0 48 48"><path d="M41,45.5H34A4.56,4.56,0,0,1,29.5,41V38A4.56,4.56,0,0,1,34,33.5h7A4.56,4.56,0,0,1,45.5,38v3A4.56,4.56,0,0,1,41,45.5Zm-7-9A1.58,1.58,0,0,0,32.5,38v3A1.58,1.58,0,0,0,34,42.5h7A1.58,1.58,0,0,0,42.5,41V38A1.58,1.58,0,0,0,41,36.5Z"/><path d="M43.1,36.5h-11V32a5.5,5.5,0,1,1,11,0Zm-8-3h5V32a2.5,2.5,0,1,0-5,0Z"/><path d="M24,41.5H12A7.41,7.41,0,0,1,4.5,34V12A5.51,5.51,0,0,1,10,6.5h7.8A5.43,5.43,0,0,1,22.45,9l1.6,2.4A2.44,2.44,0,0,0,26.2,12.5H36A7.41,7.41,0,0,1,43.5,20v2a1.5,1.5,0,0,1-3,0V20A4.4,4.4,0,0,0,36,15.5H26.2A5.43,5.43,0,0,1,21.55,13L20,10.63A2.44,2.44,0,0,0,17.8,9.5H10A2.5,2.5,0,0,0,7.5,12V34A4.4,4.4,0,0,0,12,38.5H24a1.5,1.5,0,0,1,0,3Z"/></svg>