<?xml version="1.0" encoding="UTF-8"?><svg id="Lager_1" xmlns="http://www.w3.org/2000/svg" viewBox="0 0 48 48"><defs><style>.cls-1{fill:#1d1d1b;}</style></defs><path class="cls-1" d="m33.6665,30.1006c.3237-.7627-.0327-1.6436-.7954-1.9668l-4.3938-1.8635c.0403-.6603-.0501-1.3256-.3054-1.9568-.4507-1.1143-1.3081-1.9863-2.4146-2.4561s-2.3296-.4805-3.4438-.0293c-1.1147.4502-1.9868,1.3076-2.4561,2.4141s-.48,2.3301-.0293,3.4443c.4507,1.1152,1.3086,1.9873,2.4146,2.4561.5654.2402,1.1611.3604,1.7573.3604.5708,0,1.1416-.1104,1.6865-.3311.6316-.2551,1.1729-.6523,1.6195-1.14l4.3942,1.8636c.1909.0811.3896.1191.585.1191.584,0,1.1392-.3428,1.3813-.9141Zm-9.104-2.71c-.3721.1494-.7788.1465-1.1484-.0098-.3687-.1562-.6543-.4473-.8047-.8184-.1499-.3721-.1465-.7793.0098-1.1484.1567-.3691.4473-.6553.8184-.8047.1816-.0732.3721-.1104.562-.1104.1987,0,.3975.04.5859.1201h.0005c.3687.1562.6543.4473.8047.8184.1499.3721.1465.7793-.0098,1.1484-.1567.3691-.4473.6553-.8184.8047Z"/><path class="cls-1" d="m37.821,12.2607c-.0137-.0148-.018-.0344-.0324-.0488s-.034-.0187-.0488-.0325c-3.5276-3.5073-8.3841-5.6794-13.7397-5.6794s-10.2121,2.1722-13.7397,5.6794c-.0148.0137-.0344.0181-.0488.0325s-.0187.034-.0324.0488c-3.507,3.5277-5.679,8.384-5.679,13.7393,0,5.209,2.0283,10.1055,5.7114,13.7881.2925.293.6768.4395,1.0605.4395,0,0,.0001,0,.0002,0,.384,0,.7678-.1464,1.0604-.4394l2.1216-2.1211c.5859-.5859.5859-1.5352,0-2.1211-.585-.5859-1.5352-.5859-2.1211,0l-1.0092,1.009c-2.1531-2.5768-3.451-5.7103-3.7507-9.0549h1.4269c.8286,0,1.5-.6719,1.5-1.5s-.6714-1.5-1.5-1.5h-1.424c.3105-3.4241,1.6663-6.5494,3.7522-9.0505l1.0048,1.0046c.293.293.6768.4395,1.0605.4395s.7681-.1465,1.0605-.4395c.5859-.5859.5859-1.5352,0-2.1211l-1.0049-1.0046c2.5011-2.0861,5.6264-3.4419,9.0508-3.7524v1.424c0,.8281.6714,1.5,1.5,1.5s1.5-.6719,1.5-1.5v-1.424c3.4244.3105,6.5497,1.6663,9.0508,3.7524l-1.0049,1.0046c-.5859.5859-.5859,1.5352,0,2.1211.2925.293.6768.4395,1.0605.4395s.7676-.1465,1.0605-.4395l1.0048-1.0046c2.0859,2.5011,3.4417,5.6263,3.7522,9.0505h-1.424c-.8286,0-1.5.6719-1.5,1.5s.6714,1.5,1.5,1.5h1.4269c-.2997,3.3447-1.5976,6.4781-3.7507,9.0549l-1.0092-1.009c-.5859-.5859-1.5361-.5859-2.1211,0-.5859.5859-.5859,1.5352,0,2.1211l2.1216,2.1211c.2925.293.6768.4395,1.0605.4395s.7681-.1465,1.0605-.4395c3.6831-3.6826,5.7114-8.5791,5.7114-13.7881,0-5.3552-2.172-10.2115-5.679-13.7393Z"/></svg>