<svg id="Lager_1" data-name="Lager 1" xmlns="http://www.w3.org/2000/svg" viewBox="0 0 48 48"><path d="M31.8,43.5H16.2a7.7,7.7,0,0,1-7.7-7.7V16.2a7.7,7.7,0,0,1,7.7-7.7H32a7.7,7.7,0,0,1,7.5,7.7V36A7.7,7.7,0,0,1,31.8,43.5Zm-15.6-32a4.71,4.71,0,0,0-4.7,4.7V35.8a4.71,4.71,0,0,0,4.7,4.7H31.8A4.72,4.72,0,0,0,36.5,36V16.2A4.72,4.72,0,0,0,32,11.5Z"/><path d="M24,26.7a5.1,5.1,0,1,1,5.1-5.1A5.11,5.11,0,0,1,24,26.7Zm0-7.2a2.1,2.1,0,1,0,2.1,2.1A2.1,2.1,0,0,0,24,19.5Z"/><path d="M28.5,11.5h-9V6.6a4.16,4.16,0,0,1,4.1-4.1h.8a4.16,4.16,0,0,1,4.1,4.1Zm-6-3h3V6.6a1.14,1.14,0,0,0-1.1-1.1h-.8a1.14,1.14,0,0,0-1.1,1.1Z"/><path d="M30,35.5A1.5,1.5,0,0,1,28.5,34,2.5,2.5,0,0,0,26,31.5H22A2.5,2.5,0,0,0,19.5,34a1.5,1.5,0,0,1-3,0A5.51,5.51,0,0,1,22,28.5h4A5.51,5.51,0,0,1,31.5,34,1.5,1.5,0,0,1,30,35.5Z"/></svg>