<?xml version="1.0" encoding="UTF-8"?><svg id="Lager_1" xmlns="http://www.w3.org/2000/svg" viewBox="0 0 48 48"><path d="m34,4.5h-3.5c-.8286,0-1.5.6714-1.5,1.5s.6714,1.5,1.5,1.5h3.5c2.4814,0,4.5,2.0186,4.5,4.5v13.5h-5.5c-1.9297,0-3.5,1.5703-3.5,3.5v2c0,.2759-.2241.5-.5.5h-10c-.2759,0-.5-.2241-.5-.5v-2c0-1.9297-1.5703-3.5-3.5-3.5h-5.5v-13.5c0-2.4814,2.0186-4.5,4.5-4.5h4c.8286,0,1.5-.6714,1.5-1.5s-.6714-1.5-1.5-1.5h-4c-4.1357,0-7.5,3.3643-7.5,7.5v24c0,4.1357,3.3643,7.5,7.5,7.5h20c4.1357,0,7.5-3.3643,7.5-7.5V12c0-4.1357-3.3643-7.5-7.5-7.5Zm0,36H14c-2.4814,0-4.5-2.0186-4.5-4.5v-7.5h5.5c.2759,0,.5.2241.5.5v2c0,1.9297,1.5703,3.5,3.5,3.5h10c1.9297,0,3.5-1.5703,3.5-3.5v-2c0-.2759.2241-.5.5-.5h5.5v7.5c0,2.4814-2.0186,4.5-4.5,4.5Z"/><path d="m19.4038,15.2827c-.5859-.5859-1.5352-.5859-2.1211,0-.5859.5854-.5859,1.5356,0,2.1211l5.6567,5.6567c.293.293.6768.4395,1.0605.4395s.7676-.1465,1.0605-.4395l5.6567-5.6567c.5859-.5854.5859-1.5356,0-2.1211-.5859-.5859-1.5352-.5859-2.1211,0l-3.0962,3.0962V6c0-.8286-.6714-1.5-1.5-1.5s-1.5.6714-1.5,1.5v12.3789l-3.0962-3.0962Z"/></svg>