<svg id="Lager_1" data-name="Lager 1" xmlns="http://www.w3.org/2000/svg" viewBox="0 0 48 48"><path d="M39.42,12.89,11.8,4.74A5.68,5.68,0,0,0,4.74,11.8l1.59,5.39h0l6.56,22.22a5.67,5.67,0,0,0,5.44,4.08,5.82,5.82,0,0,0,1.42-.18A32.57,32.57,0,0,0,43.32,19.75,5.66,5.66,0,0,0,39.42,12.89Zm-17.73-2.1L29.34,13a4,4,0,0,1-7.84-1A4.08,4.08,0,0,1,21.69,10.79ZM8.29,8.29a2.69,2.69,0,0,1,1.89-.79,2.58,2.58,0,0,1,.77.12l7.86,2.32A7.09,7.09,0,0,0,18.5,12a7,7,0,0,0,13.73,1.9l2.67.79A36.1,36.1,0,0,1,14.69,34.9l-1.13-3.8A8.5,8.5,0,0,0,11,14.5a8.6,8.6,0,0,0-2.25.31L7.62,11A2.65,2.65,0,0,1,8.29,8.29ZM9.6,17.68A5.43,5.43,0,0,1,11,17.5a5.5,5.5,0,0,1,1.71,10.72ZM40.42,19A29.61,29.61,0,0,1,19,40.42a2.68,2.68,0,0,1-3.24-1.85l-.23-.78A39.11,39.11,0,0,0,37.79,15.54l.78.23A2.69,2.69,0,0,1,40.42,19Z"/></svg>