<svg id="Search_3_" data-name="Search (3)" xmlns="http://www.w3.org/2000/svg" width="18.233" height="18.232" viewBox="0 0 18.233 18.232">
  <path id="Path_19558" data-name="Path 19558" d="M12.662,20.823a8.162,8.162,0,1,1,8.162-8.162A8.162,8.162,0,0,1,12.662,20.823Zm0-14.924a6.762,6.762,0,1,0,6.762,6.762A6.762,6.762,0,0,0,12.662,5.9Z" transform="translate(-4.5 -4.5)" fill="#b1b5ce"/>
  <path id="Path_19559" data-name="Path 19559" d="M36.792,37.507a.721.721,0,0,1-.506-.21L32.23,33.241a.716.716,0,0,1,1.012-1.012L37.3,36.286a.711.711,0,0,1,0,1.012A.721.721,0,0,1,36.792,37.507Z" transform="translate(-19.276 -19.276)" fill="#b1b5ce"/>
</svg>
