<svg id="Lager_1" data-name="Lager 1" xmlns="http://www.w3.org/2000/svg" viewBox="0 0 48 48"><path d="M34,4.5H14A9.51,9.51,0,0,0,4.5,14V34A9.51,9.51,0,0,0,14,43.5H34A9.51,9.51,0,0,0,43.5,34V14A9.51,9.51,0,0,0,34,4.5Zm-20,3H34A6.51,6.51,0,0,1,40.5,14v8.7H35.42l-3.2-9.57-.08-.2a2.06,2.06,0,0,0-3.68,0L23,31.21,18.42,17.52l-.08-.19a2.06,2.06,0,0,0-3.68,0L12.8,22.5H7.5V14A6.51,6.51,0,0,1,14,7.5Zm20,33H14A6.51,6.51,0,0,1,7.5,34V25.5h6.1A1.92,1.92,0,0,0,15.46,24l1-2.83,4.71,14,.08.19A2,2,0,0,0,23.1,36.4h0a2,2,0,0,0,1.84-1.13L30.36,17l2.37,7.13A1.94,1.94,0,0,0,34.6,25.7h5.9V34A6.51,6.51,0,0,1,34,40.5Z"/></svg>