<svg width="228" height="184" viewBox="0 0 228 184" fill="none" xmlns="http://www.w3.org/2000/svg">
<mask id="mask0_3_82" style="mask-type:luminance" maskUnits="userSpaceOnUse" x="26" y="16" width="168" height="169">
<path d="M110 184.001C156.392 184.001 194 146.393 194 100.001C194 53.6091 156.392 16.001 110 16.001C63.6081 16.001 26 53.6091 26 100.001C26 146.393 63.6081 184.001 110 184.001Z" fill="white"/>
</mask>
<g mask="url(#mask0_3_82)">
<path d="M110.2 99.762L28.647 49.79C-23.272 86.222 70.108 202.273 70.87 205.908L110.2 99.762Z" fill="#F28602"/>
<path d="M110.416 99.9969L84.293 42.3099L79.628 32.0079L74.471 20.6199C59.944 25.1089 26.489 33.5199 17.821 44.0349L110.416 99.9969Z" fill="#8B5CF6"/>
<path d="M109.848 99.6849L79.532 182.731C88.532 228.601 82.268 201.597 128.445 192.675C174.622 183.753 202.395 129.396 193.431 83.5199C184.467 37.6439 149.596 6.44491 103.413 15.3329L91.796 16.1399L109.848 99.6849Z" fill="#00857E"/>
<path d="M109.533 99.1108L108.172 11.4967C103.079 10.7699 73.0109 6.51061 67.9824 6.26362L109.533 99.1108Z" fill="#CE2356"/>
</g>
<path d="M0.978693 134V133.169L4.09943 129.753C4.46567 129.353 4.76728 129.005 5.00426 128.71C5.24124 128.411 5.41667 128.131 5.53054 127.869C5.64749 127.605 5.70597 127.328 5.70597 127.038C5.70597 126.706 5.62595 126.418 5.46591 126.175C5.30895 125.932 5.09351 125.744 4.8196 125.612C4.54569 125.48 4.23793 125.413 3.89631 125.413C3.53314 125.413 3.21615 125.489 2.94531 125.64C2.67756 125.787 2.46982 125.995 2.32209 126.263C2.17744 126.531 2.10511 126.844 2.10511 127.205H1.01562C1.01562 126.651 1.14335 126.164 1.39879 125.746C1.65424 125.327 2.00201 125.001 2.44212 124.767C2.8853 124.533 3.38234 124.416 3.93324 124.416C4.48722 124.416 4.9781 124.533 5.4059 124.767C5.83369 125.001 6.16915 125.316 6.41229 125.713C6.65542 126.11 6.77699 126.552 6.77699 127.038C6.77699 127.386 6.7139 127.726 6.58771 128.059C6.46461 128.388 6.24917 128.756 5.94141 129.162C5.63672 129.565 5.21354 130.058 4.67188 130.639L2.5483 132.911V132.984H6.94318V134H0.978693ZM11.989 134.129C11.6012 134.123 11.2134 134.049 10.8256 133.908C10.4379 133.766 10.0839 133.528 9.76385 133.192C9.44377 132.854 9.18679 132.397 8.9929 131.821C8.79901 131.242 8.70206 130.516 8.70206 129.642C8.70206 128.805 8.78054 128.063 8.9375 127.417C9.09446 126.768 9.32221 126.221 9.62074 125.778C9.91927 125.332 10.2794 124.993 10.701 124.762C11.1257 124.532 11.6043 124.416 12.1367 124.416C12.6661 124.416 13.137 124.522 13.5494 124.735C13.9648 124.944 14.3034 125.236 14.565 125.612C14.8266 125.987 14.9959 126.42 15.0728 126.909H13.9464C13.8417 126.484 13.6386 126.132 13.337 125.852C13.0354 125.572 12.6353 125.432 12.1367 125.432C11.4042 125.432 10.8272 125.75 10.4055 126.387C9.98698 127.025 9.77616 127.919 9.77308 129.07H9.84695C10.0193 128.808 10.224 128.585 10.4609 128.4C10.701 128.212 10.9657 128.068 11.255 127.966C11.5443 127.865 11.8505 127.814 12.1737 127.814C12.7153 127.814 13.2108 127.949 13.6602 128.22C14.1095 128.488 14.4696 128.859 14.7404 129.333C15.0112 129.804 15.1467 130.344 15.1467 130.953C15.1467 131.538 15.0159 132.073 14.7543 132.56C14.4927 133.043 14.1249 133.428 13.6509 133.714C13.18 133.997 12.6261 134.135 11.989 134.129ZM11.989 133.114C12.3768 133.114 12.7246 133.017 13.0323 132.823C13.3432 132.629 13.5878 132.369 13.7663 132.043C13.9479 131.716 14.0387 131.353 14.0387 130.953C14.0387 130.562 13.951 130.207 13.7756 129.887C13.6032 129.564 13.3647 129.307 13.06 129.116C12.7584 128.925 12.4137 128.83 12.0259 128.83C11.7335 128.83 11.4612 128.888 11.2088 129.005C10.9564 129.119 10.7348 129.276 10.544 129.476C10.3563 129.676 10.2086 129.905 10.1009 130.164C9.99313 130.419 9.93928 130.688 9.93928 130.972C9.93928 131.347 10.027 131.698 10.2024 132.024C10.3809 132.35 10.6241 132.614 10.9318 132.814C11.2427 133.014 11.5951 133.114 11.989 133.114ZM21.7817 132.227V131.729C21.7817 131.384 21.8525 131.069 21.9941 130.782C22.1387 130.493 22.348 130.262 22.6219 130.09C22.8989 129.914 23.2343 129.827 23.6283 129.827C24.0284 129.827 24.3638 129.914 24.6347 130.09C24.9055 130.262 25.1102 130.493 25.2487 130.782C25.3872 131.069 25.4564 131.384 25.4564 131.729V132.227C25.4564 132.572 25.3856 132.889 25.2441 133.178C25.1056 133.464 24.8994 133.695 24.6254 133.871C24.3546 134.043 24.0222 134.129 23.6283 134.129C23.2282 134.129 22.8912 134.043 22.6173 133.871C22.3434 133.695 22.1356 133.464 21.9941 133.178C21.8525 132.889 21.7817 132.572 21.7817 132.227ZM22.7235 131.729V132.227C22.7235 132.513 22.7912 132.77 22.9266 132.998C23.062 133.223 23.2959 133.335 23.6283 133.335C23.9514 133.335 24.1792 133.223 24.3115 132.998C24.4469 132.77 24.5146 132.513 24.5146 132.227V131.729C24.5146 131.442 24.45 131.187 24.3208 130.962C24.1915 130.735 23.9607 130.621 23.6283 130.621C23.3051 130.621 23.0728 130.735 22.9312 130.962C22.7927 131.187 22.7235 131.442 22.7235 131.729ZM17.0729 126.817V126.318C17.0729 125.973 17.1437 125.658 17.2852 125.372C17.4299 125.083 17.6392 124.852 17.9131 124.679C18.1901 124.504 18.5255 124.416 18.9195 124.416C19.3196 124.416 19.655 124.504 19.9259 124.679C20.1967 124.852 20.4014 125.083 20.5399 125.372C20.6784 125.658 20.7476 125.973 20.7476 126.318V126.817C20.7476 127.161 20.6768 127.478 20.5352 127.768C20.3968 128.054 20.1905 128.285 19.9166 128.46C19.6458 128.633 19.3134 128.719 18.9195 128.719C18.5194 128.719 18.1824 128.633 17.9085 128.46C17.6346 128.285 17.4268 128.054 17.2852 127.768C17.1437 127.478 17.0729 127.161 17.0729 126.817ZM18.0146 126.318V126.817C18.0146 127.103 18.0824 127.36 18.2178 127.588C18.3532 127.812 18.5871 127.925 18.9195 127.925C19.2426 127.925 19.4704 127.812 19.6027 127.588C19.7381 127.36 19.8058 127.103 19.8058 126.817V126.318C19.8058 126.032 19.7412 125.777 19.6119 125.552C19.4827 125.324 19.2519 125.21 18.9195 125.21C18.5963 125.21 18.364 125.324 18.2224 125.552C18.0839 125.777 18.0146 126.032 18.0146 126.318ZM17.4237 134L23.9237 124.545H24.9763L18.4763 134H17.4237Z" fill="#2B3A44"/>
<path d="M33.3026 23.5455V33H32.1577V24.7457H32.1023L29.794 26.2784V25.1151L32.1577 23.5455H33.3026ZM36.0217 33V32.169L39.1424 28.7528C39.5086 28.3527 39.8103 28.005 40.0472 27.7095C40.2842 27.411 40.4596 27.1309 40.5735 26.8693C40.6905 26.6046 40.7489 26.3277 40.7489 26.0384C40.7489 25.706 40.6689 25.4182 40.5089 25.1751C40.3519 24.9319 40.1365 24.7442 39.8626 24.6119C39.5887 24.4795 39.2809 24.4134 38.9393 24.4134C38.5761 24.4134 38.2591 24.4888 37.9883 24.6396C37.7205 24.7873 37.5128 24.995 37.3651 25.2628C37.2204 25.5305 37.1481 25.8445 37.1481 26.2045H36.0586C36.0586 25.6506 36.1863 25.1643 36.4418 24.7457C36.6972 24.3272 37.045 24.0009 37.4851 23.767C37.9283 23.5331 38.4253 23.4162 38.9762 23.4162C39.5302 23.4162 40.0211 23.5331 40.4489 23.767C40.8767 24.0009 41.2121 24.3164 41.4553 24.7134C41.6984 25.1104 41.82 25.5521 41.82 26.0384C41.82 26.3861 41.7569 26.7262 41.6307 27.0586C41.5076 27.3879 41.2921 27.7557 40.9844 28.1619C40.6797 28.5651 40.2565 29.0575 39.7148 29.6392L37.5913 31.9105V31.9844H41.9862V33H36.0217ZM48.7124 31.2273V30.7287C48.7124 30.384 48.7831 30.0685 48.9247 29.7823C49.0694 29.493 49.2786 29.2622 49.5526 29.0898C49.8295 28.9144 50.165 28.8267 50.5589 28.8267C50.959 28.8267 51.2945 28.9144 51.5653 29.0898C51.8362 29.2622 52.0408 29.493 52.1793 29.7823C52.3178 30.0685 52.3871 30.384 52.3871 30.7287V31.2273C52.3871 31.572 52.3163 31.889 52.1747 32.1783C52.0362 32.4645 51.83 32.6953 51.5561 32.8707C51.2853 33.0431 50.9529 33.1293 50.5589 33.1293C50.1589 33.1293 49.8219 33.0431 49.5479 32.8707C49.274 32.6953 49.0663 32.4645 48.9247 32.1783C48.7831 31.889 48.7124 31.572 48.7124 31.2273ZM49.6541 30.7287V31.2273C49.6541 31.5135 49.7218 31.7705 49.8572 31.9982C49.9927 32.2229 50.2266 32.3352 50.5589 32.3352C50.8821 32.3352 51.1098 32.2229 51.2422 31.9982C51.3776 31.7705 51.4453 31.5135 51.4453 31.2273V30.7287C51.4453 30.4425 51.3807 30.187 51.2514 29.9624C51.1222 29.7346 50.8913 29.6207 50.5589 29.6207C50.2358 29.6207 50.0034 29.7346 49.8619 29.9624C49.7234 30.187 49.6541 30.4425 49.6541 30.7287ZM44.0036 25.8168V25.3182C44.0036 24.9735 44.0743 24.658 44.2159 24.3718C44.3606 24.0825 44.5698 23.8517 44.8438 23.6793C45.1207 23.5039 45.4562 23.4162 45.8501 23.4162C46.2502 23.4162 46.5857 23.5039 46.8565 23.6793C47.1274 23.8517 47.332 24.0825 47.4705 24.3718C47.609 24.658 47.6783 24.9735 47.6783 25.3182V25.8168C47.6783 26.1615 47.6075 26.4785 47.4659 26.7678C47.3274 27.054 47.1212 27.2848 46.8473 27.4602C46.5765 27.6326 46.2441 27.7188 45.8501 27.7188C45.45 27.7188 45.113 27.6326 44.8391 27.4602C44.5652 27.2848 44.3575 27.054 44.2159 26.7678C44.0743 26.4785 44.0036 26.1615 44.0036 25.8168ZM44.9453 25.3182V25.8168C44.9453 26.103 45.013 26.36 45.1484 26.5877C45.2839 26.8124 45.5178 26.9247 45.8501 26.9247C46.1733 26.9247 46.401 26.8124 46.5334 26.5877C46.6688 26.36 46.7365 26.103 46.7365 25.8168V25.3182C46.7365 25.032 46.6719 24.7765 46.5426 24.5518C46.4134 24.3241 46.1825 24.2102 45.8501 24.2102C45.527 24.2102 45.2946 24.3241 45.1531 24.5518C45.0146 24.7765 44.9453 25.032 44.9453 25.3182ZM44.3544 33L50.8544 23.5455H51.907L45.407 33H44.3544Z" fill="#2B3A44"/>
<path d="M83.2741 12L87.5028 3.63494V3.56108H82.6278V2.54545H88.6847V3.61648L84.4744 12H83.2741ZM95.2251 10.2273V9.72869C95.2251 9.384 95.2958 9.06854 95.4374 8.78232C95.5821 8.49302 95.7913 8.26219 96.0653 8.08984C96.3422 7.91442 96.6777 7.8267 97.0716 7.8267C97.4717 7.8267 97.8072 7.91442 98.078 8.08984C98.3489 8.26219 98.5535 8.49302 98.692 8.78232C98.8305 9.06854 98.8998 9.384 98.8998 9.72869V10.2273C98.8998 10.572 98.829 10.889 98.6874 11.1783C98.5489 11.4645 98.3427 11.6953 98.0688 11.8707C97.798 12.0431 97.4656 12.1293 97.0716 12.1293C96.6715 12.1293 96.3345 12.0431 96.0606 11.8707C95.7867 11.6953 95.579 11.4645 95.4374 11.1783C95.2958 10.889 95.2251 10.572 95.2251 10.2273ZM96.1668 9.72869V10.2273C96.1668 10.5135 96.2345 10.7705 96.3699 10.9982C96.5054 11.2229 96.7393 11.3352 97.0716 11.3352C97.3948 11.3352 97.6225 11.2229 97.7549 10.9982C97.8903 10.7705 97.958 10.5135 97.958 10.2273V9.72869C97.958 9.44247 97.8934 9.18703 97.7641 8.96236C97.6349 8.73461 97.404 8.62074 97.0716 8.62074C96.7485 8.62074 96.5161 8.73461 96.3746 8.96236C96.2361 9.18703 96.1668 9.44247 96.1668 9.72869ZM90.5162 4.81676V4.31818C90.5162 3.97348 90.587 3.65803 90.7286 3.3718C90.8733 3.0825 91.0825 2.85168 91.3564 2.67933C91.6334 2.50391 91.9689 2.41619 92.3628 2.41619C92.7629 2.41619 93.0984 2.50391 93.3692 2.67933C93.6401 2.85168 93.8447 3.0825 93.9832 3.3718C94.1217 3.65803 94.191 3.97348 94.191 4.31818V4.81676C94.191 5.16146 94.1202 5.47846 93.9786 5.76776C93.8401 6.05398 93.6339 6.2848 93.36 6.46023C93.0892 6.63258 92.7568 6.71875 92.3628 6.71875C91.9627 6.71875 91.6257 6.63258 91.3518 6.46023C91.0779 6.2848 90.8702 6.05398 90.7286 5.76776C90.587 5.47846 90.5162 5.16146 90.5162 4.81676ZM91.458 4.31818V4.81676C91.458 5.10298 91.5257 5.35997 91.6611 5.58771C91.7965 5.81238 92.0305 5.92472 92.3628 5.92472C92.686 5.92472 92.9137 5.81238 93.0461 5.58771C93.1815 5.35997 93.2492 5.10298 93.2492 4.81676V4.31818C93.2492 4.03196 93.1846 3.77651 93.0553 3.55185C92.926 3.3241 92.6952 3.21023 92.3628 3.21023C92.0397 3.21023 91.8073 3.3241 91.6657 3.55185C91.5273 3.77651 91.458 4.03196 91.458 4.31818ZM90.8671 12L97.3671 2.54545H98.4197L91.9197 12H90.8671Z" fill="#2B3A44"/>
<path d="M204.933 114.129C204.392 114.129 203.904 114.022 203.47 113.806C203.036 113.591 202.688 113.295 202.426 112.92C202.165 112.544 202.022 112.116 201.997 111.636H203.105C203.148 112.064 203.342 112.418 203.687 112.698C204.035 112.975 204.45 113.114 204.933 113.114C205.321 113.114 205.666 113.023 205.967 112.841C206.272 112.66 206.511 112.41 206.683 112.093C206.858 111.773 206.946 111.412 206.946 111.009C206.946 110.596 206.855 110.228 206.674 109.905C206.495 109.579 206.249 109.322 205.935 109.134C205.621 108.946 205.263 108.851 204.859 108.848C204.57 108.845 204.273 108.89 203.968 108.982C203.664 109.071 203.413 109.187 203.216 109.328L202.145 109.199L202.717 104.545H207.629V105.561H203.678L203.345 108.349H203.401C203.594 108.196 203.838 108.068 204.13 107.966C204.422 107.865 204.727 107.814 205.044 107.814C205.623 107.814 206.138 107.952 206.591 108.229C207.046 108.503 207.403 108.879 207.662 109.356C207.923 109.833 208.054 110.378 208.054 110.99C208.054 111.593 207.919 112.132 207.648 112.606C207.38 113.077 207.011 113.449 206.54 113.723C206.069 113.994 205.533 114.129 204.933 114.129ZM212.842 114.129C212.301 114.129 211.813 114.022 211.379 113.806C210.945 113.591 210.597 113.295 210.336 112.92C210.074 112.544 209.931 112.116 209.906 111.636H211.014C211.057 112.064 211.251 112.418 211.596 112.698C211.944 112.975 212.359 113.114 212.842 113.114C213.23 113.114 213.575 113.023 213.877 112.841C214.181 112.66 214.42 112.41 214.592 112.093C214.767 111.773 214.855 111.412 214.855 111.009C214.855 110.596 214.764 110.228 214.583 109.905C214.404 109.579 214.158 109.322 213.844 109.134C213.53 108.946 213.172 108.851 212.769 108.848C212.479 108.845 212.182 108.89 211.878 108.982C211.573 109.071 211.322 109.187 211.125 109.328L210.054 109.199L210.627 104.545H215.538V105.561H211.587L211.254 108.349H211.31C211.504 108.196 211.747 108.068 212.039 107.966C212.332 107.865 212.636 107.814 212.953 107.814C213.532 107.814 214.047 107.952 214.5 108.229C214.955 108.503 215.312 108.879 215.571 109.356C215.832 109.833 215.963 110.378 215.963 110.99C215.963 111.593 215.828 112.132 215.557 112.606C215.289 113.077 214.92 113.449 214.449 113.723C213.978 113.994 213.443 114.129 212.842 114.129ZM222.617 112.227V111.729C222.617 111.384 222.687 111.069 222.829 110.782C222.974 110.493 223.183 110.262 223.457 110.09C223.734 109.914 224.069 109.827 224.463 109.827C224.863 109.827 225.199 109.914 225.47 110.09C225.74 110.262 225.945 110.493 226.084 110.782C226.222 111.069 226.291 111.384 226.291 111.729V112.227C226.291 112.572 226.221 112.889 226.079 113.178C225.941 113.464 225.734 113.695 225.46 113.871C225.19 114.043 224.857 114.129 224.463 114.129C224.063 114.129 223.726 114.043 223.452 113.871C223.178 113.695 222.971 113.464 222.829 113.178C222.687 112.889 222.617 112.572 222.617 112.227ZM223.558 111.729V112.227C223.558 112.513 223.626 112.77 223.762 112.998C223.897 113.223 224.131 113.335 224.463 113.335C224.786 113.335 225.014 113.223 225.146 112.998C225.282 112.77 225.35 112.513 225.35 112.227V111.729C225.35 111.442 225.285 111.187 225.156 110.962C225.026 110.735 224.796 110.621 224.463 110.621C224.14 110.621 223.908 110.735 223.766 110.962C223.628 111.187 223.558 111.442 223.558 111.729ZM217.908 106.817V106.318C217.908 105.973 217.979 105.658 218.12 105.372C218.265 105.083 218.474 104.852 218.748 104.679C219.025 104.504 219.36 104.416 219.754 104.416C220.155 104.416 220.49 104.504 220.761 104.679C221.032 104.852 221.236 105.083 221.375 105.372C221.513 105.658 221.583 105.973 221.583 106.318V106.817C221.583 107.161 221.512 107.478 221.37 107.768C221.232 108.054 221.026 108.285 220.752 108.46C220.481 108.633 220.148 108.719 219.754 108.719C219.354 108.719 219.017 108.633 218.743 108.46C218.47 108.285 218.262 108.054 218.12 107.768C217.979 107.478 217.908 107.161 217.908 106.817ZM218.85 106.318V106.817C218.85 107.103 218.917 107.36 219.053 107.588C219.188 107.812 219.422 107.925 219.754 107.925C220.078 107.925 220.305 107.812 220.438 107.588C220.573 107.36 220.641 107.103 220.641 106.817V106.318C220.641 106.032 220.576 105.777 220.447 105.552C220.318 105.324 220.087 105.21 219.754 105.21C219.431 105.21 219.199 105.324 219.057 105.552C218.919 105.777 218.85 106.032 218.85 106.318ZM218.259 114L224.759 104.545H225.811L219.311 114H218.259Z" fill="#2B3A44"/>
</svg>
